<?xml version="1.0" standalone="no"?>
<!DOCTYPE svg PUBLIC "-//W3C//DTD SVG 20010904//EN"
 "http://www.w3.org/TR/2001/REC-SVG-20010904/DTD/svg10.dtd">
<svg version="1.0" xmlns="http://www.w3.org/2000/svg"
 width="150.000000pt" height="150.000000pt" viewBox="0 0 150.000000 150.000000"
 preserveAspectRatio="xMidYMid meet">
<metadata>
Created by potrace 1.14, written by Peter Selinger 2001-2017
</metadata>
<g transform="translate(0.000000,150.000000) scale(0.100000,-0.100000)"
fill="#000000" stroke="none">
<path d="M0 750 l0 -750 750 0 750 0 0 750 0 750 -750 0 -750 0 0 -750z m665
115 c0 -17 -8 -20 -48 -23 -48 -3 -48 -4 -45 -35 3 -30 6 -32 46 -35 38 -3 43
-6 40 -25 -2 -18 -11 -23 -45 -25 -40 -3 -43 -5 -43 -32 0 -27 3 -29 47 -32
37 -2 49 -7 51 -22 2 -10 -2 -22 -10 -27 -20 -13 -122 -11 -136 3 -13 13 -18
259 -5 272 4 4 39 5 78 4 62 -3 70 -5 70 -23z"/>
</g>
</svg>
